# xmcd
#
# Track frame offsets:
#	150
#	13160
#	24360
#	36764
#	46498
#	56467
#	68625
#	78500
#	90430
#	104277
#	117833
#	128423
#	145478
#	160209
#	172408
#	182312
#	198815
#	212100
#	230677
#	247156
#
# Disc length: 3542 seconds
#
# Revision: 0
# Processed by: cddbd v1.5.2PL0 Copyright (c) Steve Scherf et al.
# Submitted via: dBpowerAMP V4.0
#
DISCID=0f0dd414
DTITLE=George Jones - 40 Years Of Duets (Time Life)
DYEAR=2007
DGENRE=Country
TTITLE0=Yearning (With Jeanette Hicks)
TTITLE1=Flame In My Heart (With Virginia Spurlock)
TTITLE2=Waltz Of The Angels (With Margie Singleton)
TTITLE3=Rollin' In My Sweet Baby's Arms (With Melba Montgomery)
TTITLE4=Let's Invite Them Over (With Melba Montgomery)
TTITLE5=We Must Have Been Out Of Our Minds (With Melba Montgomery)
TTITLE6=I've Got Five Dollars And It's Saturday Night (With Gene Pitney)
TTITLE7=Milwaukee, Here I Come (With Brenda Carter)
TTITLE8=Golden Ring (With Tammy Wynette)
TTITLE9=We're Gonna Hold On (With Tammy Wynette)
TTITLE10=Maybellene (With Johnny Paycheck)
TTITLE11=Bartender's Blues (With James Taylor)
TTITLE12=Yesterday's Wine (With Merle Haggard)
TTITLE13=Two Story House (With Tammy Wynette)
TTITLE14=We Didn't See A Thing (With Ray Charles And Chet Atkins)
TTITLE15=A Few Ole Country Boys (With Randy Travis)
TTITLE16=Size Seven Round (Made Of Gold) (With Lacy J. Dalton)
TTITLE17=You Don't Seem To Miss Me (With Patty Loveless)
TTITLE18=A Good Year For The Roses (With Alan Jackson)
TTITLE19=One (With Tammy Wynette)
EXTD=
EXTT0=
EXTT1=
EXTT2=
EXTT3=
EXTT4=
EXTT5=
EXTT6=
EXTT7=
EXTT8=
EXTT9=
EXTT10=
EXTT11=
EXTT12=
EXTT13=
EXTT14=
EXTT15=
EXTT16=
EXTT17=
EXTT18=
EXTT19=
PLAYORDER=
